<svg
        xmlns="http://www.w3.org/2000/svg"
        xmlns:xlink="http://www.w3.org/1999/xlink"
        width="32px" height="44px">
    <path fill-rule="evenodd" fill="rgb(33, 43, 255)"
          d="M16.000,-0.001 C7.177,-0.001 -0.000,7.141 -0.000,15.919 C-0.000,26.813 14.318,42.806 14.928,43.481 C15.500,44.116 16.500,44.114 17.072,43.481 C17.681,42.806 32.000,26.813 32.000,15.919 C31.999,7.141 24.822,-0.001 16.000,-0.001 Z"/>
    <path fill-rule="evenodd" fill="rgb(255, 255, 255)"
          d="M16.000,10.000 C19.866,10.000 23.000,13.134 23.000,17.000 C23.000,20.866 19.866,24.000 16.000,24.000 C12.134,24.000 9.000,20.866 9.000,17.000 C9.000,13.134 12.134,10.000 16.000,10.000 Z"/>
</svg>